<svg version="1.1" id="Layer_1" xmlns="http://www.w3.org/2000/svg" xmlns:xlink="http://www.w3.org/1999/xlink" x="0px" y="0px"
	 width="100%" viewBox="0 0 1536 1024" enable-background="new 0 0 1536 1024" xml:space="preserve">
<path fill="#E59F5C" opacity="1.000000" stroke="none" 
	d="
M595.080200,932.029053 
	C577.552490,932.025696 560.024841,932.022400 542.035278,931.510620 
	C541.185669,928.554932 540.883057,926.090759 540.397583,923.663147 
	C532.810974,885.727295 524.321045,847.942749 517.965088,809.802429 
	C514.759399,790.565979 514.167114,770.657715 514.620728,751.104919 
	C515.249023,724.021667 517.799927,696.973694 519.857056,669.935730 
	C521.623657,646.717224 523.421204,623.485901 525.998169,600.348572 
	C528.610596,576.892456 533.257202,553.679321 532.263977,529.859436 
	C531.650879,515.155334 534.103088,500.669128 537.951721,486.451294 
	C547.978149,449.410645 570.091980,424.059784 608.352661,415.202393 
	C622.643738,411.894012 636.450439,408.135193 649.527710,401.118622 
	C668.869690,390.740753 688.668274,381.181366 708.531494,371.823273 
	C716.688904,367.980103 720.928284,362.147400 721.753357,353.519440 
	C723.684082,333.328857 725.425171,313.119659 727.452332,292.939026 
	C727.969604,287.789154 729.267151,282.717651 730.280212,277.207489 
	C732.801086,278.295410 734.431335,279.533783 736.124817,279.627319 
	C740.796814,279.885376 745.548157,280.033295 750.145813,279.372986 
	C751.289062,279.208801 751.969055,275.819122 752.861938,273.912018 
	C751.010010,273.500549 748.840332,272.262878 747.364990,272.830383 
	C742.682434,274.631622 738.791260,273.008179 735.055359,270.769501 
	C722.952942,263.517395 716.147949,243.350281 721.206665,230.190323 
	C724.575195,221.427322 733.794495,219.127014 740.358643,225.962952 
	C743.586121,229.323944 745.342590,234.062210 748.012390,238.009705 
	C749.228638,239.807846 750.859436,242.275772 752.623352,242.580414 
	C758.632996,243.618301 762.649170,239.568695 762.647827,233.267303 
	C762.647156,230.104996 762.658630,226.940948 762.563660,223.780731 
	C762.383728,217.789459 764.258545,212.971161 769.067505,208.941620 
	C775.186096,203.814697 776.636780,196.700790 775.665161,188.992279 
	C775.332458,186.352112 774.880005,183.710602 774.790039,181.059265 
	C774.461731,171.379990 778.868652,165.240448 788.517700,164.105209 
	C795.481995,163.285858 802.741394,163.774796 809.739624,164.680832 
	C827.433777,166.971603 844.789001,173.097946 863.049561,169.286377 
	C867.068054,183.569931 870.561218,197.539444 869.790649,212.217300 
	C866.848022,214.179184 863.510986,215.572540 861.832214,218.077286 
	C857.046570,225.217468 858.247253,232.545914 862.601379,239.630859 
	C866.695679,246.293076 870.774475,252.971848 874.608948,259.784698 
	C878.050476,265.899170 876.951538,267.976257 870.164612,269.366791 
	C867.242188,269.965546 864.076843,270.188538 861.539856,271.548523 
	C860.058594,272.342529 858.666565,276.574829 858.817993,276.667328 
	C863.421509,279.479004 861.611023,284.408417 862.908875,288.234833 
	C864.057373,291.620819 862.477844,292.837952 859.446899,293.143494 
	C853.493225,293.743713 847.547058,294.449493 841.581116,294.883362 
	C838.845642,295.082306 836.019409,295.538727 836.565491,298.719177 
	C836.796509,300.064636 839.953674,301.844757 841.757019,301.817993 
	C848.894165,301.712036 856.021912,300.969086 863.206238,300.916199 
	C862.498230,303.318726 861.734375,305.266296 860.976624,307.216156 
	C859.723694,310.440033 858.474731,313.665466 857.174500,317.359131 
	C857.112915,320.308258 857.082092,322.788574 857.092529,325.268738 
	C857.125000,332.970245 854.503723,336.515808 846.966675,338.176361 
	C842.642944,339.128967 838.201050,339.545624 833.430115,340.073608 
	C832.071777,339.732788 831.103088,339.384552 830.118469,339.331299 
	C811.076477,338.301971 793.690186,332.377838 777.688721,322.042297 
	C776.169189,321.060822 772.627014,320.709259 771.794983,321.643158 
	C769.478455,324.243256 771.478088,326.614166 773.945862,328.093262 
	C779.646729,331.510162 785.128296,335.626740 791.276550,337.890808 
	C802.566223,342.048187 814.272461,345.074249 826.678223,348.836731 
	C826.678223,357.097565 826.500305,366.717560 826.818054,376.321136 
	C826.887207,378.412292 828.729919,380.444763 829.755798,382.504211 
	C831.564819,381.435150 833.373901,380.366089 835.182922,379.296997 
	C835.245911,378.677856 835.308838,378.058716 835.371765,377.439545 
	C861.171021,388.539398 886.966980,399.647034 912.776184,410.723724 
	C914.747925,411.569946 916.773132,412.348419 918.842102,412.901733 
	C929.255188,415.686951 939.912109,417.744751 950.074768,421.244690 
	C974.442505,429.636719 991.587891,445.847412 1000.463013,470.339386 
	C1008.078125,491.353973 1009.506104,513.109253 1008.756348,535.239380 
	C1008.250061,550.181946 1007.784302,565.211426 1008.791077,580.101318 
	C1010.711182,608.500732 1013.956055,636.808105 1016.154785,665.192078 
	C1017.816528,686.643677 1020.407654,707.795410 1026.696167,728.527954 
	C1034.946777,755.729431 1039.641602,783.720093 1039.341309,812.172180 
	C1038.993530,845.129272 1037.396362,878.073242 1036.328369,911.022522 
	C1036.102295,917.992859 1035.818726,924.961426 1035.561523,931.930786 
	C1021.606567,932.014038 1007.651550,932.097229 993.243042,931.666321 
	C991.663086,924.274658 990.993591,917.284485 989.330688,910.539246 
	C982.289246,881.977478 974.986572,853.479797 967.707092,824.977112 
	C964.742981,813.371216 962.842163,801.988525 964.388672,789.661194 
	C965.818420,778.265381 965.145020,766.260803 963.278442,754.871704 
	C959.896729,734.238342 955.115173,713.824280 950.594666,693.390198 
	C944.831116,667.337646 942.346985,641.087036 945.575256,614.527283 
	C946.258118,608.909363 948.528625,603.452820 950.346008,598.014954 
	C951.656860,594.092651 953.714661,590.413879 954.947083,586.472656 
	C960.658691,568.206726 960.571228,549.399353 959.750488,530.558777 
	C959.622864,527.627014 960.771790,523.034729 956.265137,523.056763 
	C951.383850,523.080627 952.686646,527.790710 952.668213,530.890076 
	C952.565491,548.216187 952.145630,565.470093 948.156921,582.491455 
	C945.033142,595.822327 936.989258,604.033264 924.092590,607.875671 
	C912.519592,611.323853 900.762207,610.798523 888.937866,609.734924 
	C887.114075,609.570862 885.175781,610.679993 883.290405,611.200378 
	C884.832214,612.569458 886.258423,614.947937 887.934998,615.139832 
	C897.120178,616.191223 906.445312,617.760132 915.567993,617.080322 
	C923.198547,616.511597 930.617126,613.097900 938.136047,610.942139 
	C938.097656,611.667908 938.129700,613.002319 937.942749,614.305237 
	C935.125916,633.930176 935.581848,653.588806 938.983887,673.006348 
	C942.251587,691.656677 946.739990,710.095825 950.803528,728.603271 
	C955.713318,750.965149 959.432922,773.386414 956.178284,796.408936 
	C953.079041,818.332703 943.726807,835.183350 922.539917,845.290710 
	C888.433289,861.561646 852.752625,870.123962 815.150452,870.815918 
	C785.885254,871.354553 757.134277,867.044495 728.703613,860.305603 
	C701.612793,853.884277 674.957214,846.308044 650.290649,832.911682 
	C646.243835,830.713806 643.620605,827.806091 641.811218,823.657715 
	C636.327881,811.085876 635.581055,797.875061 636.186218,784.474121 
	C636.847534,769.832336 637.989929,755.205200 638.336731,740.557800 
	C639.041321,710.792297 633.714539,681.930054 624.512573,653.696777 
	C623.559021,650.771179 622.747253,647.484497 623.095642,644.508911 
	C624.101685,635.916321 626.039429,627.433350 627.061279,618.841980 
	C629.651489,597.063843 634.161072,575.449768 633.058167,553.335815 
	C632.930908,550.782349 633.471680,547.219971 629.710876,547.199768 
	C626.116882,547.180420 626.238464,550.542358 626.121582,553.233093 
	C626.085449,554.065002 626.048950,554.899353 625.955261,555.726074 
	C623.219971,579.863708 620.975159,604.070007 617.616638,628.120850 
	C612.819336,662.474121 603.618713,695.854797 593.450684,728.957336 
	C591.057983,736.746582 590.294128,744.446472 591.620911,752.564209 
	C593.149536,761.916931 593.968750,771.388306 595.009583,780.817627 
	C598.571960,813.090759 596.199585,845.361450 595.161133,877.651123 
	C594.578796,895.759277 595.071716,913.901917 595.080200,932.029053 
M685.077759,611.550537 
	C680.119202,609.239380 675.213623,606.800293 670.163818,604.709656 
	C668.947693,604.206177 667.253479,604.857483 665.779175,604.977722 
	C666.277283,606.399536 666.598816,607.923279 667.338928,609.205444 
	C667.793945,609.993652 668.860840,610.456726 669.700745,610.990723 
	C696.799255,628.218872 725.469910,629.296631 755.154236,619.129028 
	C756.559082,618.647888 757.496033,616.800781 758.650879,615.589905 
	C756.940674,615.069702 755.248901,614.467773 753.509888,614.075378 
	C752.932800,613.945068 752.239197,614.379089 751.590149,614.512146 
	C729.440735,619.052856 707.438171,619.912598 685.077759,611.550537 
M750.268921,427.183136 
	C732.673950,424.861816 715.091797,422.430542 697.465454,420.378815 
	C695.574707,420.158722 692.091064,421.757507 691.671082,423.192902 
	C690.744690,426.358307 693.722595,426.955658 696.371948,427.342651 
	C717.524841,430.431946 738.659363,433.648926 759.831360,436.598389 
	C761.343445,436.809052 763.107361,435.211334 764.754150,434.454437 
	C763.738403,432.953949 763.037598,430.668762 761.644043,430.109314 
	C758.305542,428.769104 754.641235,428.240326 750.268921,427.183136 
M875.093140,427.716583 
	C877.675781,426.959229 880.999023,426.208374 879.499023,422.736053 
	C878.954163,421.474548 875.419250,421.171173 873.216858,421.059875 
	C871.303467,420.963135 869.333496,421.704437 867.408875,422.160950 
	C857.431763,424.527649 847.411621,426.743988 837.539856,429.491760 
	C836.000793,429.920227 835.148132,432.814697 833.978027,434.568848 
	C835.814575,435.050018 837.805176,436.251282 839.463013,435.896698 
	C851.111877,433.405060 862.692200,430.592743 875.093140,427.716583 
M710.001770,598.104370 
	C708.172913,599.726379 706.344055,601.348450 704.515198,602.970459 
	C706.423523,604.745178 708.058533,607.264832 710.314331,608.092529 
	C712.741638,608.983093 715.901855,608.816895 718.452332,608.091736 
	C720.083313,607.627991 722.438782,605.107300 722.234680,603.880615 
	C721.933594,602.070984 719.930603,599.972290 718.124512,599.133667 
	C715.987366,598.141357 713.288879,598.357849 710.001770,598.104370 
M829.757019,793.073181 
	C830.559387,793.520874 831.363770,794.359009 832.163818,794.354797 
	C838.874451,794.319946 845.585449,794.167358 852.292725,793.941711 
	C853.141907,793.913147 854.405273,793.457703 854.687927,792.839478 
	C854.981995,792.196167 854.601074,790.829102 854.032349,790.269653 
	C847.014038,783.367920 832.759521,785.387512 829.757019,793.073181 
M919.823364,590.199768 
	C918.507385,590.889771 916.451965,591.282593 916.030212,592.332031 
	C915.168701,594.475342 914.039001,597.952942 915.054688,599.140808 
	C918.212280,602.833374 922.526062,601.148865 925.825378,599.009033 
	C927.473206,597.940308 929.115051,594.763428 928.701294,593.032043 
	C927.700439,588.844299 923.944885,589.353882 919.823364,590.199768 
M988.841248,732.261475 
	C987.004578,734.821960 984.862183,737.228149 983.459534,740.007629 
	C982.751526,741.410706 983.383179,743.489868 983.409058,745.263306 
	C985.105286,744.693054 987.360840,744.614868 988.383545,743.452148 
	C990.655396,740.869507 992.582703,737.876770 994.093689,734.779541 
	C994.792725,733.346802 994.188660,731.278259 994.175354,729.497986 
	C992.533569,730.219971 990.891785,730.942017 988.841248,732.261475 
M584.101990,754.399902 
	C585.590698,750.311462 579.883789,738.802063 575.907471,738.036804 
	C575.207153,737.902039 573.841003,738.216919 573.729004,738.600586 
	C573.394714,739.745178 573.086548,741.246033 573.563965,742.216125 
	C575.246521,745.634766 577.073425,749.020447 579.242432,752.142944 
	C580.120483,753.407043 582.020264,753.961487 584.101990,754.399902 
z"/>
<path fill="#F5E7D7" opacity="1.000000" stroke="none" 
	d="
M509.647278,719.174194 
	C508.475281,718.419006 506.808380,717.942505 506.203339,716.868042 
	C489.034851,686.379944 475.156097,654.490784 467.158173,620.347107 
	C462.827087,601.857300 459.346008,583.141235 456.250397,564.400269 
	C454.638519,554.641968 454.495422,544.617126 454.048645,534.696472 
	C453.503326,522.587891 453.040192,510.461731 453.062134,498.344116 
	C453.120483,466.101807 457.042206,434.305542 464.493286,402.919250 
	C472.438538,369.451355 484.716217,337.694031 501.659821,307.774902 
	C513.383240,287.073669 527.445862,268.070923 543.155518,250.168030 
	C561.012817,229.817673 581.198486,212.106659 603.249207,196.659348 
	C623.242310,182.653488 644.263428,170.185669 667.379639,161.736465 
	C677.019714,158.212921 686.625488,154.595490 696.609253,151.401688 
	C696.083374,157.504044 694.159180,163.285858 694.488770,168.936203 
	C695.815186,191.675369 697.468567,214.410889 699.735046,237.074356 
	C701.225098,251.973785 702.933472,267.402466 712.005981,279.802887 
	C718.659790,288.897400 720.421387,298.054718 719.090637,308.579681 
	C717.111755,324.230713 715.225342,339.893402 713.308594,355.552277 
	C712.866577,359.163544 710.884521,361.354492 707.603882,362.981995 
	C683.773315,374.804291 660.098083,386.943146 636.171753,398.566193 
	C630.154297,401.489349 623.548218,403.736511 616.967102,404.877045 
	C573.008301,412.494995 544.415161,437.270081 531.512451,480.076263 
	C525.886047,498.742645 524.312439,517.854248 524.255066,537.249023 
	C524.223694,547.864075 523.920593,558.604919 522.294922,569.064453 
	C517.767273,598.193298 514.002075,627.368713 512.703979,656.840881 
	C511.788605,677.623169 510.673309,698.396729 509.647278,719.174194 
M587.160889,311.432922 
	C589.103027,317.591705 590.963562,323.778534 593.058044,329.885071 
	C593.463745,331.067688 594.963928,332.877991 595.642273,332.747742 
	C596.918152,332.502869 598.428101,331.274170 599.002502,330.058472 
	C600.049927,327.841492 600.641541,325.368225 601.148621,322.944397 
	C602.882812,314.655457 606.375427,308.016449 615.641418,306.236572 
	C618.396179,305.707428 621.169189,305.007019 623.750671,303.941284 
	C625.328796,303.289764 626.558044,301.793121 627.943970,300.676025 
	C626.637512,299.621887 625.485107,298.192871 623.996826,297.581451 
	C618.798523,295.445862 613.349243,293.878693 608.282166,291.487762 
	C606.328308,290.565796 604.494873,288.251801 603.734192,286.161652 
	C601.814514,280.886871 600.610168,275.355621 598.936401,269.984100 
	C598.602478,268.912628 597.455322,268.094574 596.683167,267.159668 
	C595.802185,267.967651 594.491577,268.614899 594.118347,269.612793 
	C592.848328,273.008270 591.723511,276.483124 590.881348,280.008453 
	C589.027893,287.767059 584.696960,292.891602 576.660278,294.681763 
	C573.599487,295.363586 570.578552,296.428253 567.716675,297.713257 
	C566.296509,298.350983 565.277466,299.882141 564.076965,301.009125 
	C565.282166,301.938904 566.354370,303.210327 567.715332,303.740021 
	C574.024292,306.195709 580.413452,308.445618 587.160889,311.432922 
z"/>
<path fill="#F5E7D7" opacity="1.000000" stroke="none" 
	d="
M883.773193,153.605194 
	C885.068176,154.522263 886.239014,155.774811 887.676514,156.306793 
	C915.818848,166.721573 941.403076,181.576248 964.323120,200.890366 
	C974.598511,209.549164 984.869202,218.325851 994.221191,227.944366 
	C1012.811829,247.064651 1028.292969,268.589874 1041.486206,291.813385 
	C1053.920898,313.701599 1064.030151,336.575928 1071.954712,360.427551 
	C1080.381226,385.790100 1086.539185,411.714050 1089.982910,438.221832 
	C1091.409912,449.205811 1092.443970,460.277496 1092.912354,471.340790 
	C1093.615601,487.950500 1094.536621,504.629150 1093.755493,521.202637 
	C1092.900513,539.343811 1090.375732,557.417175 1088.287476,575.486511 
	C1085.670288,598.133057 1079.833618,620.089355 1072.815063,641.697388 
	C1065.623169,663.839233 1056.835815,685.363586 1044.956055,705.476868 
	C1041.613281,711.136536 1037.724731,716.473999 1033.526611,721.762634 
	C1027.453369,704.789978 1026.029663,687.397095 1024.722046,669.920410 
	C1022.908569,645.683411 1020.587280,621.482727 1018.322876,597.281555 
	C1016.804504,581.054260 1014.495972,564.945801 1015.726135,548.498291 
	C1016.692444,535.578735 1016.629578,522.524109 1016.116211,509.565460 
	C1015.338074,489.921783 1011.186707,470.943359 1001.571777,453.557892 
	C989.155029,431.106110 969.318848,418.271149 945.331299,411.045105 
	C933.776062,407.564178 921.906372,404.917542 910.682800,400.587585 
	C886.340027,391.196472 862.310547,380.991180 838.194153,371.019257 
	C836.591187,370.356445 834.124512,368.868927 834.112610,367.743225 
	C834.033875,360.308685 834.517639,352.868134 835.231323,345.429199 
	C837.786621,345.202057 839.927612,344.965179 842.070862,344.750061 
	C855.076599,343.444702 864.825256,339.859741 863.185730,322.372742 
	C862.984619,320.227753 862.892883,318.072510 862.852539,315.573975 
	C865.561401,311.006073 868.381104,306.841980 866.651978,301.095276 
	C866.760071,300.228088 866.773499,299.728027 867.076538,299.008331 
	C870.519104,296.100006 871.212585,292.819794 869.952271,288.922791 
	C869.292175,286.881561 868.933472,284.739258 868.494385,282.631012 
	C867.840454,279.490967 868.187500,277.464294 872.247437,276.842896 
	C877.480896,276.041870 882.674805,273.707977 883.493896,267.848969 
	C884.001892,264.215515 883.033325,259.910919 881.415833,256.536285 
	C877.342407,248.037628 872.446716,239.936844 868.049072,231.587875 
	C866.503235,228.653000 865.329895,225.027756 869.132385,223.104889 
	C874.053162,220.616531 875.227051,219.017303 874.373169,212.841492 
	C875.022400,197.065430 872.632141,182.129471 866.930176,167.546417 
	C874.240723,164.597763 879.359253,159.529861 883.773193,153.605194 
M952.845947,306.526886 
	C948.180725,308.001556 943.515564,309.476227 938.850342,310.950928 
	C938.917725,311.675629 938.985168,312.400330 939.052551,313.125031 
	C941.778748,314.091980 944.435730,315.516663 947.243896,315.940826 
	C955.975586,317.259644 960.624084,322.333374 962.160706,330.784637 
	C962.544067,332.893280 963.229736,334.979584 964.049866,336.963165 
	C964.495117,338.040100 965.515869,338.879120 966.277039,339.825470 
	C967.125854,338.936554 968.378662,338.189880 968.750854,337.133118 
	C970.071655,333.382629 971.022461,329.503876 972.244751,325.716095 
	C973.607300,321.493958 976.154358,318.513092 980.780518,317.535889 
	C983.202454,317.024323 985.579529,316.135437 987.851990,315.133667 
	C989.641113,314.345001 991.239014,313.122437 992.921875,312.092560 
	C991.324341,310.917664 989.757202,309.697449 988.111572,308.594330 
	C987.587708,308.243164 986.866089,308.134521 986.216431,308.031494 
	C977.474304,306.644958 971.827637,302.048065 970.483154,292.947784 
	C970.435425,292.624786 970.299561,292.305634 970.157471,292.007172 
	C968.906860,289.380585 967.645386,286.759125 966.387085,284.136108 
	C965.218567,286.666626 964.215881,289.291107 962.846924,291.708130 
	C960.019409,296.699951 961.726440,304.632660 952.845947,306.526886 
z"/>
<path fill="#D84A15" opacity="1.000000" stroke="none" 
	d="
M959.058899,932.065308 
	C939.910889,932.175171 920.763000,932.370361 901.614929,932.380371 
	C811.159363,932.427795 720.703735,932.425049 630.248169,932.434998 
	C629.083008,932.435120 627.917786,932.365845 626.293091,931.762939 
	C628.729980,899.836548 634.630554,869.069336 643.525696,838.796204 
	C644.524658,838.961182 645.061096,838.914307 645.446960,839.132996 
	C663.081909,849.123535 682.019958,855.883728 701.371643,861.568420 
	C735.493103,871.591919 770.248108,877.961670 805.869324,878.863342 
	C824.714172,879.340332 843.425232,877.570007 861.921814,873.973083 
	C888.413513,868.821411 913.562073,859.978088 936.740173,845.935608 
	C938.501648,844.868469 940.215393,843.722595 942.227112,842.437195 
	C951.035950,872.156799 955.764648,901.975525 959.058899,932.065308 
z"/>
<path fill="#15130C" opacity="1.000000" stroke="none" 
	d="
M959.397888,932.182373 
	C955.764648,901.975525 951.035950,872.156799 942.227112,842.437195 
	C940.215393,843.722595 938.501648,844.868469 936.740173,845.935608 
	C913.562073,859.978088 888.413513,868.821411 861.921814,873.973083 
	C843.425232,877.570007 824.714172,879.340332 805.869324,878.863342 
	C770.248108,877.961670 735.493103,871.591919 701.371643,861.568420 
	C682.019958,855.883728 663.081909,849.123535 645.446960,839.132996 
	C645.061096,838.914307 644.524658,838.961182 643.525696,838.796204 
	C634.630554,869.069336 628.729980,899.836548 625.827271,931.634155 
	C623.391235,932.201660 620.961426,932.332031 617.863037,932.498230 
	C618.369629,927.418884 618.706604,922.998230 619.265686,918.605835 
	C622.843689,890.494995 628.089905,862.726868 636.367981,835.578979 
	C636.814453,834.114990 637.189453,832.101746 636.546387,830.912659 
	C627.926575,814.972229 627.665283,797.732971 628.369446,780.320923 
	C629.001953,764.682617 630.083862,749.047729 630.186279,733.406189 
	C630.333008,710.985413 627.646179,688.876770 620.443420,667.490845 
	C620.142334,666.596863 619.782410,665.722595 619.036499,663.740662 
	C616.742554,673.450989 614.939453,682.159790 612.601501,690.722473 
	C609.272827,702.913452 605.891785,715.110779 601.892639,727.091614 
	C598.572937,737.036926 598.354431,746.898682 599.995667,757.079346 
	C606.238770,795.805481 605.362915,834.719788 603.284851,873.710144 
	C602.319702,891.818176 602.366882,909.990479 602.368530,928.133667 
	C602.369019,934.055176 598.948425,932.500549 595.416626,932.138306 
	C595.071716,913.901917 594.578796,895.759277 595.161133,877.651123 
	C596.199585,845.361450 598.571960,813.090759 595.009583,780.817627 
	C593.968750,771.388306 593.149536,761.916931 591.620911,752.564209 
	C590.294128,744.446472 591.057983,736.746582 593.450684,728.957336 
	C603.618713,695.854797 612.819336,662.474121 617.616638,628.120850 
	C620.975159,604.070007 623.219971,579.863708 625.955261,555.726074 
	C626.048950,554.899353 626.085449,554.065002 626.121582,553.233093 
	C626.238464,550.542358 626.116882,547.180420 629.710876,547.199768 
	C633.471680,547.219971 632.930908,550.782349 633.058167,553.335815 
	C634.161072,575.449768 629.651489,597.063843 627.061279,618.841980 
	C626.039429,627.433350 624.101685,635.916321 623.095642,644.508911 
	C622.747253,647.484497 623.559021,650.771179 624.512573,653.696777 
	C633.714539,681.930054 639.041321,710.792297 638.336731,740.557800 
	C637.989929,755.205200 636.847534,769.832336 636.186218,784.474121 
	C635.581055,797.875061 636.327881,811.085876 641.811218,823.657715 
	C643.620605,827.806091 646.243835,830.713806 650.290649,832.911682 
	C674.957214,846.308044 701.612793,853.884277 728.703613,860.305603 
	C757.134277,867.044495 785.885254,871.354553 815.150452,870.815918 
	C852.752625,870.123962 888.433289,861.561646 922.539917,845.290710 
	C943.726807,835.183350 953.079041,818.332703 956.178284,796.408936 
	C959.432922,773.386414 955.713318,750.965149 950.803528,728.603271 
	C946.739990,710.095825 942.251587,691.656677 938.983887,673.006348 
	C935.581848,653.588806 935.125916,633.930176 937.942749,614.305237 
	C938.129700,613.002319 938.097656,611.667908 938.136047,610.942139 
	C930.617126,613.097900 923.198547,616.511597 915.567993,617.080322 
	C906.445312,617.760132 897.120178,616.191223 887.934998,615.139832 
	C886.258423,614.947937 884.832214,612.569458 883.290405,611.200378 
	C885.175781,610.679993 887.114075,609.570862 888.937866,609.734924 
	C900.762207,610.798523 912.519592,611.323853 924.092590,607.875671 
	C936.989258,604.033264 945.033142,595.822327 948.156921,582.491455 
	C952.145630,565.470093 952.565491,548.216187 952.668213,530.890076 
	C952.686646,527.790710 951.383850,523.080627 956.265137,523.056763 
	C960.771790,523.034729 959.622864,527.627014 959.750488,530.558777 
	C960.571228,549.399353 960.658691,568.206726 954.947083,586.472656 
	C953.714661,590.413879 951.656860,594.092651 950.346008,598.014954 
	C948.528625,603.452820 946.258118,608.909363 945.575256,614.527283 
	C942.346985,641.087036 944.831116,667.337646 950.594666,693.390198 
	C955.115173,713.824280 959.896729,734.238342 963.278442,754.871704 
	C965.145020,766.260803 965.818420,778.265381 964.388672,789.661194 
	C962.842163,801.988525 964.742981,813.371216 967.707092,824.977112 
	C974.986572,853.479797 982.289246,881.977478 989.330688,910.539246 
	C990.993591,917.284485 991.663086,924.274658 992.764709,931.576538 
	C985.991455,933.423584 985.702454,933.018127 984.306030,927.029541 
	C977.896729,899.543518 971.340942,872.091614 964.781311,844.640869 
	C962.888306,836.718811 960.807434,828.841614 958.669189,820.375671 
	C955.295776,825.806152 952.038269,830.828003 949.084473,836.022583 
	C948.590027,836.892273 949.287537,838.547424 949.645447,839.778198 
	C958.118713,868.914551 963.677368,898.591736 966.225830,928.829407 
	C966.306885,929.791016 966.236145,930.765503 966.236145,932.299500 
	C963.948364,932.299500 961.842590,932.299500 959.397888,932.182373 
z"/>
<path fill="#14120C" opacity="1.000000" stroke="none" 
	d="
M883.865417,153.275772 
	C879.359253,159.529861 874.240723,164.597763 866.596069,167.570999 
	C865.023438,168.211014 864.008911,168.552658 862.994446,168.894302 
	C844.789001,173.097946 827.433777,166.971603 809.739624,164.680832 
	C802.741394,163.774796 795.481995,163.285858 788.517700,164.105209 
	C778.868652,165.240448 774.461731,171.379990 774.790039,181.059265 
	C774.880005,183.710602 775.332458,186.352112 775.665161,188.992279 
	C776.636780,196.700790 775.186096,203.814697 769.067505,208.941620 
	C764.258545,212.971161 762.383728,217.789459 762.563660,223.780731 
	C762.658630,226.940948 762.647156,230.104996 762.647827,233.267303 
	C762.649170,239.568695 758.632996,243.618301 752.623352,242.580414 
	C750.859436,242.275772 749.228638,239.807846 748.012390,238.009705 
	C745.342590,234.062210 743.586121,229.323944 740.358643,225.962952 
	C733.794495,219.127014 724.575195,221.427322 721.206665,230.190323 
	C716.147949,243.350281 722.952942,263.517395 735.055359,270.769501 
	C738.791260,273.008179 742.682434,274.631622 747.364990,272.830383 
	C748.840332,272.262878 751.010010,273.500549 752.861938,273.912018 
	C751.969055,275.819122 751.289062,279.208801 750.145813,279.372986 
	C745.548157,280.033295 740.796814,279.885376 736.124817,279.627319 
	C734.431335,279.533783 732.801086,278.295410 730.280212,277.207489 
	C729.267151,282.717651 727.969604,287.789154 727.452332,292.939026 
	C725.425171,313.119659 723.684082,333.328857 721.753357,353.519440 
	C720.928284,362.147400 716.688904,367.980103 708.531494,371.823273 
	C688.668274,381.181366 668.869690,390.740753 649.527710,401.118622 
	C636.450439,408.135193 622.643738,411.894012 608.352661,415.202393 
	C570.091980,424.059784 547.978149,449.410645 537.951721,486.451294 
	C534.103088,500.669128 531.650879,515.155334 532.263977,529.859436 
	C533.257202,553.679321 528.610596,576.892456 525.998169,600.348572 
	C523.421204,623.485901 521.623657,646.717224 519.857056,669.935730 
	C517.799927,696.973694 515.249023,724.021667 514.620728,751.104919 
	C514.167114,770.657715 514.759399,790.565979 517.965088,809.802429 
	C524.321045,847.942749 532.810974,885.727295 540.397583,923.663147 
	C540.883057,926.090759 541.185669,928.554932 541.546387,931.400574 
	C534.864624,933.465698 534.281982,933.145813 532.996704,926.913757 
	C526.122437,893.581482 518.946594,860.307373 512.490479,826.894287 
	C507.519531,801.167786 505.565491,775.108582 507.107147,748.893250 
	C507.673157,739.267883 508.841431,729.677917 509.691132,719.623047 
	C510.673309,698.396729 511.788605,677.623169 512.703979,656.840881 
	C514.002075,627.368713 517.767273,598.193298 522.294922,569.064453 
	C523.920593,558.604919 524.223694,547.864075 524.255066,537.249023 
	C524.312439,517.854248 525.886047,498.742645 531.512451,480.076263 
	C544.415161,437.270081 573.008301,412.494995 616.967102,404.877045 
	C623.548218,403.736511 630.154297,401.489349 636.171753,398.566193 
	C660.098083,386.943146 683.773315,374.804291 707.603882,362.981995 
	C710.884521,361.354492 712.866577,359.163544 713.308594,355.552277 
	C715.225342,339.893402 717.111755,324.230713 719.090637,308.579681 
	C720.421387,298.054718 718.659790,288.897400 712.005981,279.802887 
	C702.933472,267.402466 701.225098,251.973785 699.735046,237.074356 
	C697.468567,214.410889 695.815186,191.675369 694.488770,168.936203 
	C694.159180,163.285858 696.083374,157.504044 696.994629,151.399658 
	C699.945862,147.239319 703.018677,143.561646 705.727539,139.632965 
	C706.735840,138.170547 707.289490,136.139786 707.375122,134.336136 
	C708.093872,119.198051 722.499817,106.845734 737.291931,108.891251 
	C738.912720,109.115379 740.863770,109.285294 742.000916,110.255089 
	C746.181885,113.820747 749.918030,112.219826 754.208984,110.344276 
	C770.510132,103.219124 786.857239,96.108177 804.897949,94.498474 
	C819.538513,93.192146 832.725159,96.339790 843.095581,107.448723 
	C845.214966,109.718979 847.067871,110.201324 849.985840,109.279945 
	C853.610901,108.135292 857.441833,107.650284 861.174377,106.837257 
	C879.901306,102.758179 892.062134,118.900032 889.489807,136.580704 
	C888.674438,142.185577 885.858276,147.499359 883.865417,153.275772 
M706.045532,230.220535 
	C708.367981,241.710220 710.321228,253.292908 713.181213,264.647186 
	C714.456726,269.711090 717.556335,274.315521 720.343811,280.221100 
	C723.528564,274.782440 723.730408,271.136383 720.894470,267.270691 
	C717.492920,262.634003 714.139160,258.164978 713.285645,251.934586 
	C712.168518,243.780502 711.273682,235.920135 713.832764,227.854355 
	C718.537292,213.026474 737.099792,210.784439 745.000061,220.548264 
	C748.495483,224.868134 751.601868,229.502838 755.158997,234.369690 
	C755.432983,231.737244 756.285645,229.179382 755.835449,226.876251 
	C754.068359,217.837540 756.931702,210.854919 763.596802,204.641312 
	C766.170532,202.241943 768.069641,198.341034 768.695740,194.841446 
	C769.370056,191.073120 768.432251,186.932938 767.777222,183.025497 
	C765.642029,170.288681 772.167358,158.927780 784.908081,157.182083 
	C795.080872,155.788223 805.692261,156.787552 816.033630,157.639008 
	C828.621887,158.675507 840.584290,163.345795 853.721985,162.299774 
	C873.227478,160.746750 885.544434,144.134460 880.807495,124.841545 
	C878.916016,117.137886 872.201904,112.711998 864.219238,114.162216 
	C859.333374,115.049835 854.477783,116.127243 849.641602,117.260223 
	C842.761841,118.871964 841.331787,118.297714 837.508240,112.306618 
	C836.809875,111.212425 835.792786,110.233704 834.728027,109.475090 
	C825.447632,102.863243 814.886658,100.999512 803.897156,102.297554 
	C788.744934,104.087288 774.761780,109.908127 760.903931,115.988754 
	C756.674255,117.844681 752.398499,119.940338 747.929688,120.763062 
	C745.650574,121.182663 742.942200,118.884666 740.350464,118.057487 
	C727.210815,113.863792 715.364319,122.457993 715.134521,136.608276 
	C715.074646,140.294342 713.722900,142.670624 711.363098,145.308914 
	C708.221741,148.821045 703.976807,152.825760 703.522461,156.981491 
	C702.210022,168.985001 701.953857,181.193909 702.426941,193.277374 
	C702.898438,205.321243 704.755859,217.310852 706.045532,230.220535 
z"/>
<path fill="#15130D" opacity="1.000000" stroke="none" 
	d="
M834.818054,345.429565 
	C834.517639,352.868134 834.033875,360.308685 834.112610,367.743225 
	C834.124512,368.868927 836.591187,370.356445 838.194153,371.019257 
	C862.310547,380.991180 886.340027,391.196472 910.682800,400.587585 
	C921.906372,404.917542 933.776062,407.564178 945.331299,411.045105 
	C969.318848,418.271149 989.155029,431.106110 1001.571777,453.557892 
	C1011.186707,470.943359 1015.338074,489.921783 1016.116211,509.565460 
	C1016.629578,522.524109 1016.692444,535.578735 1015.726135,548.498291 
	C1014.495972,564.945801 1016.804504,581.054260 1018.322876,597.281555 
	C1020.587280,621.482727 1022.908569,645.683411 1024.722046,669.920410 
	C1026.029663,687.397095 1027.453369,704.789978 1033.162476,721.872314 
	C1036.981567,738.913757 1041.490234,755.515503 1044.035400,772.413025 
	C1048.691650,803.327271 1048.140503,834.527588 1046.592041,865.675903 
	C1045.583374,885.965027 1044.066650,906.229797 1043.164795,926.522705 
	C1042.928955,931.832275 1040.996216,933.380493 1035.861206,932.052124 
	C1035.818726,924.961426 1036.102295,917.992859 1036.328369,911.022522 
	C1037.396362,878.073242 1038.993530,845.129272 1039.341309,812.172180 
	C1039.641602,783.720093 1034.946777,755.729431 1026.696167,728.527954 
	C1020.407654,707.795410 1017.816528,686.643677 1016.154785,665.192078 
	C1013.956055,636.808105 1010.711182,608.500732 1008.791077,580.101318 
	C1007.784302,565.211426 1008.250061,550.181946 1008.756348,535.239380 
	C1009.506104,513.109253 1008.078125,491.353973 1000.463013,470.339386 
	C991.587891,445.847412 974.442505,429.636719 950.074768,421.244690 
	C939.912109,417.744751 929.255188,415.686951 918.842102,412.901733 
	C916.773132,412.348419 914.747925,411.569946 912.776184,410.723724 
	C886.966980,399.647034 861.171021,388.539398 835.371765,377.439545 
	C835.308838,378.058716 835.245911,378.677856 835.182922,379.296997 
	C833.373901,380.366089 831.564819,381.435150 829.755798,382.504211 
	C828.729919,380.444763 826.887207,378.412292 826.818054,376.321136 
	C826.500305,366.717560 826.678223,357.097565 826.678223,348.836731 
	C814.272461,345.074249 802.566223,342.048187 791.276550,337.890808 
	C785.128296,335.626740 779.646729,331.510162 773.945862,328.093262 
	C771.478088,326.614166 769.478455,324.243256 771.794983,321.643158 
	C772.627014,320.709259 776.169189,321.060822 777.688721,322.042297 
	C793.690186,332.377838 811.076477,338.301971 830.118469,339.331299 
	C831.103088,339.384552 832.071777,339.732788 833.505005,340.404602 
	C834.247437,342.386871 834.532776,343.908203 834.818054,345.429565 
z"/>
<path fill="#F5E2CF" opacity="1.000000" stroke="none" 
	d="
M979.593872,127.662788 
	C986.601685,126.360985 990.123108,122.169945 991.604248,115.813683 
	C992.618652,111.460442 993.753906,107.122818 995.136719,102.876404 
	C995.502869,101.752083 996.972046,100.278831 997.956238,100.262466 
	C998.945557,100.246025 1000.502014,101.662834 1000.876343,102.767822 
	C1002.951721,108.894867 1004.585266,115.173836 1006.738342,121.270729 
	C1007.295593,122.848640 1008.937195,124.547821 1010.491516,125.178055 
	C1015.869324,127.358589 1021.493042,128.930237 1026.883423,131.083557 
	C1028.781006,131.841629 1030.275879,133.607803 1031.954590,134.913696 
	C1030.424072,136.065964 1029.015991,137.463394 1027.330566,138.305618 
	C1025.417480,139.261551 1023.286926,140.180344 1021.197815,140.319794 
	C1009.222351,141.119095 1005.392212,149.458572 1003.068665,159.360413 
	C1002.539124,161.617371 1002.036438,163.947693 1001.024536,165.999191 
	C1000.420593,167.223648 998.954163,168.459137 997.671448,168.732529 
	C997.006775,168.874222 995.459473,167.080093 995.064758,165.906891 
	C993.213013,160.402924 991.595337,154.819077 989.950195,149.247177 
	C988.988159,145.988907 987.194031,143.856079 983.670166,142.977402 
	C978.046387,141.575104 972.473938,139.910095 966.995178,138.021301 
	C965.549805,137.523026 964.527832,135.796753 963.311401,134.634399 
	C964.488037,133.615723 965.504883,132.161530 966.871277,131.660278 
	C970.916748,130.176163 975.100159,129.068176 979.593872,127.662788 
z"/>
<path fill="#17130C" opacity="1.000000" stroke="none" 
	d="
M874.121643,213.187408 
	C875.227051,219.017303 874.053162,220.616531 869.132385,223.104889 
	C865.329895,225.027756 866.503235,228.653000 868.049072,231.587875 
	C872.446716,239.936844 877.342407,248.037628 881.415833,256.536285 
	C883.033325,259.910919 884.001892,264.215515 883.493896,267.848969 
	C882.674805,273.707977 877.480896,276.041870 872.247437,276.842896 
	C868.187500,277.464294 867.840454,279.490967 868.494385,282.631012 
	C868.933472,284.739258 869.292175,286.881561 869.952271,288.922791 
	C871.212585,292.819794 870.519104,296.100006 866.829346,299.037659 
	C866.035706,299.507172 865.778748,299.727722 865.268433,299.925934 
	C864.394409,300.089844 863.773743,300.276062 863.153137,300.462280 
	C856.021912,300.969086 848.894165,301.712036 841.757019,301.817993 
	C839.953674,301.844757 836.796509,300.064636 836.565491,298.719177 
	C836.019409,295.538727 838.845642,295.082306 841.581116,294.883362 
	C847.547058,294.449493 853.493225,293.743713 859.446899,293.143494 
	C862.477844,292.837952 864.057373,291.620819 862.908875,288.234833 
	C861.611023,284.408417 863.421509,279.479004 858.817993,276.667328 
	C858.666565,276.574829 860.058594,272.342529 861.539856,271.548523 
	C864.076843,270.188538 867.242188,269.965546 870.164612,269.366791 
	C876.951538,267.976257 878.050476,265.899170 874.608948,259.784698 
	C870.774475,252.971848 866.695679,246.293076 862.601379,239.630859 
	C858.247253,232.545914 857.046570,225.217468 861.832214,218.077286 
	C863.510986,215.572540 866.848022,214.179184 870.124939,212.283905 
	C871.921875,212.588776 873.021790,212.888092 874.121643,213.187408 
z"/>
<path fill="#131009" opacity="1.000000" stroke="none" 
	d="
M685.436035,611.708801 
	C707.438171,619.912598 729.440735,619.052856 751.590149,614.512146 
	C752.239197,614.379089 752.932800,613.945068 753.509888,614.075378 
	C755.248901,614.467773 756.940674,615.069702 758.650879,615.589844 
	C757.496033,616.800781 756.559082,618.647888 755.154236,619.129028 
	C725.469910,629.296631 696.799255,628.218872 669.700745,610.990723 
	C668.860840,610.456726 667.793945,609.993652 667.338928,609.205444 
	C666.598816,607.923279 666.277283,606.399536 665.779175,604.977722 
	C667.253479,604.857483 668.947693,604.206177 670.163818,604.709656 
	C675.213623,606.800293 680.119202,609.239380 685.436035,611.708801 
z"/>
<path fill="#141109" opacity="1.000000" stroke="none" 
	d="
M750.688721,427.283569 
	C754.641235,428.240326 758.305542,428.769104 761.644043,430.109314 
	C763.037598,430.668762 763.738403,432.953949 764.754150,434.454468 
	C763.107361,435.211334 761.343445,436.809052 759.831360,436.598389 
	C738.659363,433.648926 717.524841,430.431946 696.371948,427.342651 
	C693.722595,426.955658 690.744690,426.358307 691.671082,423.192902 
	C692.091064,421.757507 695.574707,420.158722 697.465454,420.378815 
	C715.091797,422.430542 732.673950,424.861816 750.688721,427.283569 
z"/>
<path fill="#15120A" opacity="1.000000" stroke="none" 
	d="
M874.693787,427.799744 
	C862.692200,430.592743 851.111877,433.405060 839.463013,435.896698 
	C837.805176,436.251282 835.814575,435.050018 833.978027,434.568848 
	C835.148132,432.814697 836.000793,429.920227 837.539856,429.491760 
	C847.411621,426.743988 857.431763,424.527649 867.408875,422.160950 
	C869.333496,421.704437 871.303467,420.963135 873.216858,421.059875 
	C875.419250,421.171173 878.954163,421.474548 879.499023,422.736053 
	C880.999023,426.208374 877.675781,426.959229 874.693787,427.799744 
z"/>
<path fill="#905728" opacity="1.000000" stroke="none" 
	d="
M835.231323,345.429199 
	C834.532776,343.908203 834.247437,342.386871 833.887268,340.534515 
	C838.201050,339.545624 842.642944,339.128967 846.966675,338.176361 
	C854.503723,336.515808 857.125000,332.970245 857.092529,325.268738 
	C857.082092,322.788574 857.112915,320.308258 857.530823,317.396057 
	C859.541321,316.616730 861.145813,316.269379 862.750366,315.921997 
	C862.892883,318.072510 862.984619,320.227753 863.185730,322.372742 
	C864.825256,339.859741 855.076599,343.444702 842.070862,344.750061 
	C839.927612,344.965179 837.786621,345.202057 835.231323,345.429199 
z"/>
<path fill="#905324" opacity="1.000000" stroke="none" 
	d="
M874.373169,212.841476 
	C873.021790,212.888092 871.921875,212.588776 870.487793,212.222870 
	C870.561218,197.539444 867.068054,183.569931 863.049561,169.286377 
	C864.008911,168.552658 865.023438,168.211014 866.372009,167.844788 
	C872.632141,182.129471 875.022400,197.065430 874.373169,212.841476 
z"/>
<path fill="#6B3E16" opacity="1.000000" stroke="none" 
	d="
M710.417725,598.077393 
	C713.288879,598.357849 715.987366,598.141357 718.124512,599.133667 
	C719.930603,599.972290 721.933594,602.070984 722.234680,603.880615 
	C722.438782,605.107300 720.083313,607.627991 718.452332,608.091736 
	C715.901855,608.816895 712.741638,608.983093 710.314331,608.092529 
	C708.058533,607.264832 706.423523,604.745178 704.515198,602.970459 
	C706.344055,601.348450 708.172913,599.726379 710.417725,598.077393 
z"/>
<path fill="#15120A" opacity="1.000000" stroke="none" 
	d="
M829.674316,792.748535 
	C832.759521,785.387512 847.014038,783.367920 854.032349,790.269653 
	C854.601074,790.829102 854.981995,792.196167 854.687927,792.839478 
	C854.405273,793.457703 853.141907,793.913147 852.292725,793.941711 
	C845.585449,794.167358 838.874451,794.319946 832.163818,794.354797 
	C831.363770,794.359009 830.559387,793.520874 829.674316,792.748535 
z"/>
<path fill="#724116" opacity="1.000000" stroke="none" 
	d="
M920.197998,590.121826 
	C923.944885,589.353882 927.700439,588.844299 928.701294,593.032043 
	C929.115051,594.763428 927.473206,597.940308 925.825378,599.009033 
	C922.526062,601.148865 918.212280,602.833374 915.054688,599.140808 
	C914.039001,597.952942 915.168701,594.475342 916.030212,592.332031 
	C916.451965,591.282593 918.507385,590.889771 920.197998,590.121826 
z"/>
<path fill="#1B150C" opacity="1.000000" stroke="none" 
	d="
M989.045654,731.962769 
	C990.891785,730.942017 992.533569,730.219971 994.175415,729.497986 
	C994.188660,731.278259 994.792725,733.346802 994.093689,734.779541 
	C992.582703,737.876770 990.655396,740.869507 988.383545,743.452148 
	C987.360840,744.614868 985.105286,744.693054 983.409058,745.263306 
	C983.383179,743.489868 982.751526,741.410706 983.459534,740.007629 
	C984.862183,737.228149 987.004578,734.821960 989.045654,731.962769 
z"/>
<path fill="#15120A" opacity="1.000000" stroke="none" 
	d="
M583.778564,754.619385 
	C582.020264,753.961487 580.120483,753.407043 579.242432,752.142944 
	C577.073425,749.020447 575.246521,745.634766 573.563965,742.216125 
	C573.086548,741.246033 573.394714,739.745178 573.729004,738.600586 
	C573.841003,738.216919 575.207153,737.902039 575.907471,738.036804 
	C579.883789,738.802063 585.590698,750.311462 583.778564,754.619385 
z"/>
<path fill="#4F3016" opacity="1.000000" stroke="none" 
	d="
M862.852539,315.573975 
	C861.145813,316.269379 859.541321,316.616730 857.580444,316.927185 
	C858.474731,313.665466 859.723694,310.440033 860.976624,307.216156 
	C861.734375,305.266296 862.498230,303.318726 863.206238,300.916199 
	C863.773743,300.276062 864.394409,300.089844 865.326904,300.248413 
	C865.945007,300.882935 866.251160,301.172699 866.557312,301.462463 
	C868.381104,306.841980 865.561401,311.006073 862.852539,315.573975 
z"/>
<path fill="#FDFDFD" opacity="1.000000" stroke="none" 
	d="
M586.967407,311.101074 
	C580.413452,308.445618 574.024292,306.195709 567.715332,303.740021 
	C566.354370,303.210327 565.282166,301.938904 564.076965,301.009125 
	C565.277466,299.882141 566.296509,298.350983 567.716675,297.713257 
	C570.578552,296.428253 573.599487,295.363586 576.660278,294.681763 
	C584.696960,292.891602 589.027893,287.767059 590.881348,280.008453 
	C591.723511,276.483124 592.848328,273.008270 594.118347,269.612793 
	C594.491577,268.614899 595.802185,267.967651 596.683167,267.159668 
	C597.455322,268.094574 598.602478,268.912628 598.936401,269.984100 
	C600.610168,275.355621 601.814514,280.886871 603.734192,286.161652 
	C604.494873,288.251801 606.328308,290.565796 608.282166,291.487762 
	C613.349243,293.878693 618.798523,295.445862 623.996826,297.581451 
	C625.485107,298.192871 626.637512,299.621887 627.943970,300.676025 
	C626.558044,301.793121 625.328796,303.289764 623.750671,303.941284 
	C621.169189,305.007019 618.396179,305.707428 615.641418,306.236572 
	C606.375427,308.016449 602.882812,314.655457 601.148621,322.944397 
	C600.641541,325.368225 600.049927,327.841492 599.002502,330.058472 
	C598.428101,331.274170 596.918152,332.502869 595.642273,332.747742 
	C594.963928,332.877991 593.463745,331.067688 593.058044,329.885071 
	C590.963562,323.778534 589.103027,317.591705 586.967407,311.101074 
z"/>
<path fill="#FDFDFD" opacity="1.000000" stroke="none" 
	d="
M953.200012,306.356079 
	C961.726440,304.632660 960.019409,296.699951 962.846924,291.708130 
	C964.215881,289.291107 965.218567,286.666626 966.387146,284.136108 
	C967.645386,286.759125 968.906860,289.380585 970.157471,292.007172 
	C970.299561,292.305634 970.435425,292.624786 970.483154,292.947784 
	C971.827637,302.048065 977.474304,306.644958 986.216431,308.031494 
	C986.866089,308.134521 987.587708,308.243164 988.111572,308.594330 
	C989.757202,309.697449 991.324341,310.917664 992.921875,312.092590 
	C991.239014,313.122437 989.641113,314.345001 987.851990,315.133667 
	C985.579529,316.135437 983.202454,317.024323 980.780518,317.535889 
	C976.154358,318.513092 973.607300,321.493958 972.244751,325.716095 
	C971.022461,329.503876 970.071655,333.382629 968.750854,337.133118 
	C968.378662,338.189880 967.125854,338.936554 966.277039,339.825470 
	C965.515869,338.879120 964.495117,338.040100 964.049866,336.963165 
	C963.229736,334.979584 962.544067,332.893280 962.160706,330.784637 
	C960.624084,322.333374 955.975586,317.259644 947.243896,315.940826 
	C944.435730,315.516663 941.778748,314.091980 939.052551,313.125031 
	C938.985168,312.400330 938.917725,311.675629 938.850342,310.950928 
	C943.515564,309.476227 948.180725,308.001556 953.200012,306.356079 
z"/>
<path fill="#E59F5C" opacity="1.000000" stroke="none" 
	d="
M866.651978,301.095306 
	C866.251160,301.172699 865.945007,300.882935 865.580322,300.270691 
	C865.778748,299.727722 866.035706,299.507172 866.539795,299.257324 
	C866.773499,299.728027 866.760071,300.228088 866.651978,301.095306 
z"/>
<path fill="#3F2407" opacity="1.000000" stroke="none" 
	d="
M706.025635,229.772385 
	C704.755859,217.310852 702.898438,205.321243 702.426941,193.277374 
	C701.953857,181.193909 702.210022,168.985001 703.522461,156.981491 
	C703.976807,152.825760 708.221741,148.821045 711.363098,145.308914 
	C713.722900,142.670624 715.074646,140.294342 715.134521,136.608276 
	C715.364319,122.457993 727.210815,113.863792 740.350464,118.057487 
	C742.942200,118.884666 745.650574,121.182663 747.929688,120.763062 
	C752.398499,119.940338 756.674255,117.844681 760.903931,115.988754 
	C774.761780,109.908127 788.744934,104.087288 803.897156,102.297554 
	C814.886658,100.999512 825.447632,102.863243 834.728027,109.475090 
	C835.792786,110.233704 836.809875,111.212425 837.508240,112.306618 
	C841.331787,118.297714 842.761841,118.871964 849.641602,117.260223 
	C854.477783,116.127243 859.333374,115.049835 864.219238,114.162216 
	C872.201904,112.711998 878.916016,117.137886 880.807495,124.841545 
	C885.544434,144.134460 873.227478,160.746750 853.721985,162.299774 
	C840.584290,163.345795 828.621887,158.675507 816.033630,157.639008 
	C805.692261,156.787552 795.080872,155.788223 784.908081,157.182083 
	C772.167358,158.927780 765.642029,170.288681 767.777222,183.025497 
	C768.432251,186.932938 769.370056,191.073120 768.695740,194.841446 
	C768.069641,198.341034 766.170532,202.241943 763.596802,204.641312 
	C756.931702,210.854919 754.068359,217.837540 755.835449,226.876251 
	C756.285645,229.179382 755.432983,231.737244 755.158997,234.369690 
	C751.601868,229.502838 748.495483,224.868134 745.000061,220.548264 
	C737.099792,210.784439 718.537292,213.026474 713.832764,227.854355 
	C711.273682,235.920135 712.168518,243.780502 713.285645,251.934586 
	C714.139160,258.164978 717.492920,262.634003 720.894470,267.270691 
	C723.730408,271.136383 723.528564,274.782440 720.343811,280.221100 
	C717.556335,274.315521 714.456726,269.711090 713.181213,264.647186 
	C710.321228,253.292908 708.367981,241.710220 706.025635,229.772385 
z"/>
</svg>